HIERARCHY
ROOT Hips
{
  OFFSET -10.0563 7.73376 -472.55
  CHANNELS 6 Xposition Yposition Zposition Zrotation Xrotation Yrotation
  JOINT Spine
  {
    OFFSET 0 0 0
    CHANNELS 3 Zrotation Xrotation Yrotation
    JOINT Spine1
    {
      OFFSET 19 0 0
      CHANNELS 3 Zrotation Xrotation Yrotation
      JOINT Neck
      {
        OFFSET 22.5 0.6 0
        CHANNELS 3 Zrotation Xrotation Yrotation
        JOINT Head
        {
          OFFSET 14 0.0308777 0
          CHANNELS 3 Zrotation Xrotation Yrotation
          End Site
          {
            OFFSET 17 0 0
          }
        }
      }
      JOINT LeftShoulder
      {
        OFFSET 19.8 3.7 4.3
        CHANNELS 3 Zrotation Xrotation Yrotation
        JOINT LeftArm
        {
          OFFSET 8 0 0
          CHANNELS 3 Zrotation Xrotation Yrotation
          JOINT LeftForeArm
          {
            OFFSET 15.2 0 0
            CHANNELS 3 Zrotation Xrotation Yrotation
            JOINT LeftHand
            {
              OFFSET 17.8 0 0
              CHANNELS 3 Zrotation Xrotation Yrotation
              End Site
              {
                OFFSET 7.2 0 0
              }
            }
          }
        }
      }
      JOINT RightShoulder
      {
        OFFSET 19.8 3.7 -4.3
        CHANNELS 3 Zrotation Xrotation Yrotation
        JOINT RightArm
        {
          OFFSET 8 0 0.151654
          CHANNELS 3 Zrotation Xrotation Yrotation
          JOINT RightForeArm
          {
            OFFSET 15.2 0 0
            CHANNELS 3 Zrotation Xrotation Yrotation
            JOINT RightHand
            {
              OFFSET 17.8 0 0
              CHANNELS 3 Zrotation Xrotation Yrotation
              End Site
              {
                OFFSET 7.2 0 0
              }
            }
          }
        }
      }
    }
  }
  JOINT LeftUpLeg
  {
    OFFSET 5.98425 -7.666 4.78879
    CHANNELS 3 Zrotation Xrotation Yrotation
    JOINT LeftLeg
    {
      OFFSET 16 0 0
      CHANNELS 3 Zrotation Xrotation Yrotation
      JOINT LeftFoot
      {
        OFFSET 18 0 0
        CHANNELS 3 Zrotation Xrotation Yrotation
        End Site
        {
          OFFSET 0 -10.8 0
        }
      }
    }
  }
  JOINT RightUpLeg
  {
    OFFSET 5.98425 -7.66598 -4.78879
    CHANNELS 3 Zrotation Xrotation Yrotation
    JOINT RightLeg
    {
      OFFSET 16 0 0
      CHANNELS 3 Zrotation Xrotation Yrotation
      JOINT RightFoot
      {
        OFFSET 18 0 0
        CHANNELS 3 Zrotation Xrotation Yrotation
        End Site
        {
          OFFSET 0 -10.8 0
        }
      }
    }
  }
  JOINT Tail
  {
    OFFSET 6.83696 -0.722574 0
    CHANNELS 3 Zrotation Xrotation Yrotation
    JOINT Tail1
    {
      OFFSET 12 0 0
      CHANNELS 3 Zrotation Xrotation Yrotation
      End Site
      {
        OFFSET 12 0 0
      }
    }
  }
}
MOTION
Frames:	17
Frame Time:	0.0166667
41.4142 16.5759 36.6106 -2.01504 -41.5795 87.305 -111.785 -4.20947 -6.91479 -54.7264 0.111404 1.98228 -9.9798 10.6764 -16.4477 128.265 80.333 -92.6626 -110.767 -36.8104 -138.676 127.694 17.2639 -132.506 -64.4583 -39.3784 28.5141 3.23293 2.05032 -22.4959 74.8426 -32.0356 47.6396 67.913 30.975 -45.4573 -65.4637 27.9669 -39.2718 7.41911 1.0245 12.2711 -135.213 38.4302 -34.589 155.041 44.6201 -2.20216 -53.0282 -2.99686 -6.07579 -153.339 -45.6385 28.4227 116.763 -84.6885 -45.0895 -22.6461 -6.06886 -34.8429 6.90838 35.2517 -3.27756 15.0314 -34.1387 11.4712 
41.4159 16.5674 36.6158 -2.00476 -41.5845 87.3086 -111.804 -4.17856 -6.82615 -54.6934 0.167676 1.85465 -10.0167 10.7096 -16.4169 128.389 80.2983 -92.6489 -110.77 -36.833 -138.64 127.729 17.1744 -132.518 -64.5176 -39.3569 28.4702 3.25713 2.04331 -22.4603 74.8712 -31.9846 47.6257 67.9615 30.9895 -45.4494 -65.552 27.9603 -39.2783 7.3965 1.02471 12.2346 -135.161 38.4328 -34.6256 155.029 44.5303 -2.20183 -53.0865 -2.98828 -6.10591 -153.587 -45.7545 28.3394 116.887 -84.6848 -44.9996 -22.6131 -6.10144 -35.0638 6.9132 35.2558 -3.27071 15.0693 -34.1331 11.4979 
41.412 16.5538 36.6074 -2.05731 -41.6619 87.2956 -111.724 -4.13264 -6.85341 -54.6871 0.227978 1.87921 -10.0106 10.7176 -16.4376 127.944 80.2325 -92.2179 -110.785 -36.8446 -138.657 127.69 17.2076 -132.474 -64.4856 -39.3638 28.4888 3.27392 2.04168 -22.4624 74.8636 -32.0592 47.7598 68.0003 30.8842 -45.4463 -65.6249 27.8745 -39.2281 7.37756 1.02997 12.159 -135.064 38.5025 -34.6805 155.03 44.3615 -2.19843 -53.119 -2.98224 -6.13406 -153.617 -45.8152 28.3539 115.917 -84.7809 -46.0107 -22.551 -6.12908 -35.1909 7.01556 35.2131 -3.30316 15.0882 -34.1133 11.4945 
41.4018 16.5584 36.6047 -2.08457 -41.6556 87.3086 -111.712 -4.11062 -6.85223 -54.7029 0.235061 1.89913 -9.97318 10.7333 -16.4935 128.273 80.2663 -92.572 -110.769 -36.8385 -138.626 127.701 17.2339 -132.469 -64.4558 -39.3821 28.4962 3.28056 2.04072 -22.4552 74.8422 -32.1009 47.7776 67.9822 30.8509 -45.4393 -65.5589 27.927 -39.2481 7.41992 1.03365 12.1905 -135.14 38.5427 -34.6334 155.021 44.3384 -2.2002 -53.086 -2.99137 -6.10416 -153.464 -45.6654 28.418 117.14 -84.6717 -44.7664 -22.5144 -6.12473 -35.0103 7.01442 35.2103 -3.34714 15.076 -34.133 11.4931 
41.4101 16.5674 36.6068 -2.09963 -41.5952 87.3045 -111.76 -4.11724 -6.8891 -54.7364 0.214388 1.94958 -9.96014 10.7576 -16.4883 128.294 80.2263 -92.4818 -110.757 -36.7972 -138.676 127.737 17.2756 -132.512 -64.4373 -39.3592 28.4901 3.24825 2.03998 -22.4573 74.8535 -32.0651 47.7389 67.8692 30.8957 -45.4327 -65.4968 27.9493 -39.2438 7.4591 1.03 12.2756 -135.297 38.5121 -34.5595 155.019 44.3046 -2.20108 -53.0509 -2.99898 -6.07815 -153.347 -45.623 28.4449 116.783 -84.7089 -45.1274 -22.4568 -6.12182 -34.8526 6.92785 35.212 -3.32802 15.0803 -34.1653 11.5071 
41.4361 16.5657 36.5944 -2.08137 -41.6196 87.2762 -111.732 -4.12903 -6.84586 -54.7634 0.235364 1.86409 -9.90935 10.7684 -16.4847 128.419 80.2263 -92.6279 -110.782 -36.8001 -138.734 127.782 17.276 -132.536 -64.3907 -39.2939 28.4503 3.23174 2.04019 -22.4172 74.8927 -31.9857 47.6996 67.962 31.0344 -45.6155 -65.4432 27.8905 -39.2723 7.41593 1.03284 12.2794 -135.276 38.4285 -34.5792 155.041 44.3789 -2.2053 -53.0361 -2.99138 -6.11462 -153.224 -45.8364 28.4773 112.28 -85.0844 -49.6642 -22.4468 -6.11249 -34.8891 6.90889 35.2412 -3.27035 15.0992 -34.1741 11.5121 
41.44 16.5572 36.5844 -2.05 -41.6714 87.2936 -111.667 -4.11258 -6.74474 -54.7766 0.264997 1.74652 -9.84619 10.8093 -16.4793 128.305 80.1751 -92.6226 -110.795 -36.8375 -138.698 127.802 17.2141 -132.54 -64.3945 -39.2823 28.4185 3.25017 2.04025 -22.4059 74.8567 -32.0185 47.6503 68.1517 31.0663 -45.6673 -65.4342 27.9044 -39.3317 7.34628 1.03218 12.2238 -135.2 38.5154 -34.5805 155.138 44.4633 -2.20901 -52.9507 -3.0026 -6.04947 -153.424 -45.975 28.4031 112.204 -85.0927 -49.7565 -22.5776 -6.09909 -35.1167 6.95764 35.2738 -3.27817 15.1352 -34.1688 11.5302 
41.4154 16.5572 36.5914 -2.05654 -41.6666 87.3212 -111.679 -4.09553 -6.78681 -54.7466 0.24445 1.83902 -9.87845 10.8612 -16.5598 128.44 80.1397 -92.6421 -110.768 -36.8283 -138.643 127.752 17.2398 -132.509 -64.4136 -39.3447 28.4653 3.26441 2.0398 -22.4468 74.8122 -32.108 47.6935 68.105 30.9408 -45.5414 -65.4989 27.9411 -39.3126 7.40421 1.03838 12.2262 -135.199 38.5399 -34.5695 155.103 44.3891 -2.20561 -52.9971 -3.00253 -6.04679 -153.651 -45.8512 28.3172 117.183 -84.6803 -44.7638 -22.5792 -6.12429 -35.1892 6.98794 35.2602 -3.33095 15.1276 -34.1589 11.5275 
41.3989 16.5634 36.6071 -2.07772 -41.5968 87.3283 -111.756 -4.06771 -6.8067 -54.7426 0.263118 1.86432 -9.89114 10.8917 -16.6406 128.983 80.1715 -93.0241 -110.75 -36.7945 -138.663 127.753 17.2676 -132.511 -64.4367 -39.3547 28.4812 3.24288 2.04014 -22.4479 74.8779 -32.034 47.7535 67.9107 30.8876 -45.4926 -65.5447 27.9485 -39.2497 7.49334 1.04538 12.2767 -135.358 38.4715 -34.4942 155.013 44.2144 -2.19715 -53.095 -2.99602 -6.09907 -153.52 -45.634 28.4104 118.496 -84.5515 -43.4356 -22.3447 -6.1709 -34.9535 6.92493 35.2437 -3.3496 15.1007 -34.1732 11.5186 
41.4031 16.5627 36.6034 -2.1112 -41.5905 87.2813 -111.733 -4.06546 -6.79946 -54.7921 0.296977 1.81947 -9.86403 10.9254 -16.6612 129.058 80.1382 -93.0621 -110.766 -36.794 -138.704 127.761 17.274 -132.519 -64.4144 -39.3254 28.4639 3.24271 2.04089 -22.4329 74.865 -32.0576 47.7611 68.235 31.0236 -45.7979 -65.3225 28.0264 -39.4357 7.41758 1.04834 12.2884 -135.394 38.4762 -34.4789 155.045 44.2014 -2.19325 -53.0694 -2.9972 -6.10207 -153.37 -45.5795 28.487 115.706 -84.8144 -46.2397 -22.2423 -6.17684 -34.8359 6.89713 35.2067 -3.28477 15.1205 -34.1788 11.5442 
41.417 16.5553 36.5986 -2.11037 -41.6173 87.257 -111.72 -4.08278 -6.75797 -54.7516 0.294066 1.75787 -9.88536 11.0108 -16.62 128.47 79.9667 -92.462 -110.774 -36.8427 -138.631 127.752 17.1931 -132.539 -64.4638 -39.316 28.4436 3.27925 2.04171 -22.4214 74.8252 -32.0921 47.7027 68.3417 31.0246 -45.7908 -65.3658 28.0557 -39.4629 7.36379 1.03825 12.2268 -135.224 38.4773 -34.5949 155.042 44.3843 -2.19496 -53.1088 -2.98769 -6.1337 -153.601 -45.7449 28.3263 115.315 -84.8486 -46.6337 -22.5052 -6.12709 -35.0856 6.91415 35.2084 -3.26261 15.1338 -34.1684 11.5491 
41.4305 16.5499 36.5985 -2.06117 -41.6744 87.2938 -111.703 -4.08163 -6.71197 -54.6782 0.273405 1.73828 -9.89551 11.0602 -16.6689 128.324 79.9067 -92.3298 -110.744 -36.8556 -138.528 127.772 17.1458 -132.542 -64.5089 -39.294 28.4194 3.28206 2.04303 -22.3819 74.8044 -32.0867 47.6221 68.0358 30.9369 -45.4342 -65.5645 28.0395 -39.3413 7.44705 1.03684 12.2764 -135.035 38.553 -34.6817 155.022 44.5583 -2.18996 -53.1099 -2.98385 -6.09513 -153.63 -45.9775 28.2595 117.093 -84.6866 -44.8163 -22.7657 -6.07692 -35.2462 7.03005 35.1941 -3.27789 15.07 -34.1094 11.473 
41.432 16.5597 36.612 -2.05697 -41.6093 87.3125 -111.766 -4.03237 -6.66476 -54.6785 0.337485 1.66388 -9.87419 11.0478 -16.7138 128.528 79.9458 -92.4931 -110.745 -36.8237 -138.592 127.836 17.1632 -132.581 -64.5163 -39.2882 28.4018 3.25779 2.04377 -22.3861 74.8156 -32.064 47.6112 67.9655 30.9576 -45.33 -65.5319 28.1533 -39.4075 7.4683 1.02928 12.452 -135.118 38.5708 -34.6522 155.01 44.5657 -2.19017 -53.0972 -2.98113 -6.07057 -153.46 -45.8526 28.3611 116.805 -84.7117 -45.0831 -22.658 -6.08579 -35.0544 6.98132 35.1958 -3.31263 15.0558 -34.1058 11.4625 
41.4146 16.5632 36.6256 -2.11014 -41.4944 87.2589 -111.817 -3.98255 -6.66084 -54.781 0.453123 1.57269 -9.80236 11.0314 -16.7457 128.388 79.9363 -92.35 -110.775 -36.7908 -138.733 127.897 17.1684 -132.612 -64.4904 -39.3061 28.3857 3.25577 2.04417 -22.4134 74.8872 -32.0181 47.7504 68.1189 30.9702 -45.5027 -65.5054 28.1627 -39.4701 7.4435 1.03913 12.3895 -135.332 38.5029 -34.5888 155.013 44.2632 -2.19274 -53.1403 -2.97867 -6.10852 -153.438 -45.7636 28.4372 112.235 -85.0915 -49.707 -22.4253 -6.12494 -34.9624 6.82448 35.2022 -3.32018 15.0627 -34.1358 11.4765 
41.394 16.5574 36.6158 -2.1279 -41.538 87.2434 -111.727 -3.99669 -6.7666 -54.8482 0.411966 1.72994 -9.75594 11.0541 -16.9095 128.38 79.9314 -92.3897 -110.753 -36.7777 -138.703 127.809 17.2169 -132.516 -64.4301 -39.331 28.4243 3.25151 2.04501 -22.4091 74.8735 -32.0925 47.8638 68.2303 30.9189 -45.6657 -65.4748 28.0658 -39.442 7.44141 1.05768 12.2186 -135.341 38.5149 -34.5334 155.014 44.0538 -2.18509 -53.1254 -2.97732 -6.10971 -153.428 -45.7505 28.423 111.431 -85.1501 -50.5275 -22.4962 -6.10544 -34.988 6.88469 35.1705 -3.31217 15.0571 -34.1163 11.4693 
41.3895 16.5595 36.6074 -2.08461 -41.621 87.2711 -111.705 -4.06433 -6.76788 -54.7467 0.290782 1.79841 -9.88488 11.1388 -16.9106 128.722 79.8878 -92.5763 -110.744 -36.8336 -138.572 127.697 17.2217 -132.469 -64.4657 -39.3473 28.4731 3.24047 2.04593 -22.3953 74.8124 -32.1346 47.7508 68.3415 30.9696 -45.8104 -65.3673 28.1467 -39.5062 7.44578 1.04878 12.3395 -135.207 38.5196 -34.5555 155.028 44.2802 -2.18433 -53.0944 -2.97728 -6.09847 -153.437 -45.6722 28.3567 116.065 -84.7808 -45.8427 -22.6486 -6.07679 -34.9593 7.01115 35.1412 -3.27879 15.0181 -34.0832 11.4507 
41.409 16.5678 36.6158 -2.05054 -41.5752 87.2658 -111.78 -4.08409 -6.68652 -54.6978 0.293967 1.6721 -9.92162 11.1523 -16.8657 129.086 79.9183 -92.9022 -110.778 -36.8672 -138.596 127.735 17.1744 -132.545 -64.5185 -39.3428 28.4568 3.23997 2.04631 -22.4105 74.8132 -32.0847 47.6472 68.4455 31.0891 -45.8946 -65.2928 28.2802 -39.636 7.47796 1.04652 12.5009 -135.175 38.4914 -34.61 155.066 44.6143 -2.1919 -53.0792 -2.97872 -6.10145 -153.53 -45.6813 28.3357 117.115 -84.684 -44.7806 -22.5669 -6.10428 -34.9619 6.93741 35.1782 -3.25008 15.0044 -34.0992 11.4535 
